<svg xmlns="http://www.w3.org/2000/svg">
<symbol id="arrow-down" viewBox="0 0 12 8"> <path fill-rule="evenodd" clip-rule="evenodd" d="M1.41 0.589966L6 5.16997L10.59 0.589966L12 1.99997L6 7.99997L0 1.99997L1.41 0.589966Z" fill="black"/> </symbol>
<symbol id="back" viewBox="0 0 12 20"> <path fill-rule="evenodd" clip-rule="evenodd" d="M11.67 1.86998L9.9 0.0999756L0 9.99998L9.9 19.9L11.67 18.13L3.54 9.99998L11.67 1.86998Z" fill="black"/> </symbol>
<symbol id="battery" viewBox="0 0 27 12"> <path opacity="0.47" d="M0.5 3C0.5 1.89543 1.39543 1 2.5 1H21.5C22.6046 1 23.5 1.89543 23.5 3V9.5C23.5 10.6046 22.6046 11.5 21.5 11.5H20.1476H2.5C1.39543 11.5 0.5 10.6046 0.5 9.5V3Z" stroke="black"/> <path opacity="0.58" fill-rule="evenodd" clip-rule="evenodd" d="M25 8.37187C25.8739 8.06299 26.5 7.22956 26.5 6.2499C26.5 5.27024 25.8739 4.43681 25 4.12793V8.37187Z" fill="black"/> <path fill-rule="evenodd" clip-rule="evenodd" d="M2 3.5C2 2.94772 2.44772 2.5 3 2.5H21C21.5523 2.5 22 2.94772 22 3.5V9C22 9.55228 21.5523 10 21 10H3C2.44772 10 2 9.55228 2 9V3.5Z" fill="black"/> </symbol>
<symbol id="bluetooth" viewBox="0 0 8 12"> <path fill-rule="evenodd" clip-rule="evenodd" d="M3.5 0V4.75L1.25 2.5L0.5 3.25L3.25 6L0.5 8.75L1.25 9.5L3.5 7.24902V12L7.5 8.5L4.75 5.9995L7.5 3.5L3.5 0ZM4.5 2.37L6 3.6L4.5 5V2.37ZM6 8.45892L4.5005 7L4.5 9.75L6 8.45892Z" fill="black"/> </symbol>
<symbol id="building" viewBox="0 0 20 17"> <path fill-rule="evenodd" clip-rule="evenodd" d="M8 17V11H12V17H17V9H20L10 0L0 9H3V17H8Z" fill="black"/> </symbol>
<symbol id="min" viewBox="0 0 5.98 91"><title>min</title><g id="&#x421;&#x43B;&#x43E;&#x439;_2" data-name="&#x421;&#x43B;&#x43E;&#x439; 2"><g id="&#x421;&#x43B;&#x43E;&#x439;_1-2" data-name="&#x421;&#x43B;&#x43E;&#x439; 1"><path class="cls-1" d="M1,1A1,1,0,0,1,2,0H4A1,1,0,0,1,5,1L6,90a1,1,0,0,1-1,1H1a1,1,0,0,1-1-1Z"/></g></g></symbol>
<symbol id="more" viewBox="0 0 16 4"> <path fill-rule="evenodd" clip-rule="evenodd" d="M2 0C0.9 0 0 0.9 0 2C0 3.1 0.9 4 2 4C3.1 4 4 3.1 4 2C4 0.9 3.1 0 2 0ZM14 0C12.9 0 12 0.9 12 2C12 3.1 12.9 4 14 4C15.1 4 16 3.1 16 2C16 0.9 15.1 0 14 0ZM8 0C6.9 0 6 0.9 6 2C6 3.1 6.9 4 8 4C9.1 4 10 3.1 10 2C10 0.9 9.1 0 8 0Z" fill="black"/> </symbol>
<symbol id="path" viewBox="0 0 20 17"> <path fill-rule="evenodd" clip-rule="evenodd" d="M8 17V11H12V17H17V9H20L10 0L0 9H3V17H8Z" fill="black"/> </symbol>
<symbol id="plus" viewBox="0 0 14 14"> <path fill-rule="evenodd" clip-rule="evenodd" d="M14 8H8V14H6V8H0V6H6V0H8V6H14V8Z" fill="black"/> </symbol>
<symbol id="sec" viewBox="0 0 3 102"><title>sec</title><g id="&#x421;&#x43B;&#x43E;&#x439;_2" data-name="&#x421;&#x43B;&#x43E;&#x439; 2"><g id="&#x421;&#x43B;&#x43E;&#x439;_1-2" data-name="&#x421;&#x43B;&#x43E;&#x439; 1"><rect class="cls-1" width="3" height="102" rx="1" ry="1"/></g></g></symbol>
<symbol id="signal" viewBox="0 0 17 10"> <mask id="path-1-inside-1" fill="white"> <path fill-rule="evenodd" clip-rule="evenodd" d="M14.25 0C13.8358 0 13.5 0.335786 13.5 0.75V9.25C13.5 9.66421 13.8358 10 14.25 10H15.75C16.1642 10 16.5 9.66421 16.5 9.25V0.75C16.5 0.335786 16.1642 0 15.75 0H14.25ZM9.75 2C9.33579 2 9 2.33579 9 2.75V9.25C9 9.66421 9.33579 10 9.75 10H11.25C11.6642 10 12 9.66421 12 9.25V2.75C12 2.33579 11.6642 2 11.25 2H9.75ZM4.5 4.75C4.5 4.33579 4.83579 4 5.25 4H6.75C7.16421 4 7.5 4.33579 7.5 4.75V9.25C7.5 9.66421 7.16421 10 6.75 10H5.25C4.83579 10 4.5 9.66421 4.5 9.25V4.75ZM0.75 5.5C0.335786 5.5 0 5.83579 0 6.25V9.25C0 9.66421 0.335786 10 0.75 10H2.25C2.66421 10 3 9.66421 3 9.25V6.25C3 5.83579 2.66421 5.5 2.25 5.5H0.75Z"/> </mask> <path fill-rule="evenodd" clip-rule="evenodd" d="M14.25 0C13.8358 0 13.5 0.335786 13.5 0.75V9.25C13.5 9.66421 13.8358 10 14.25 10H15.75C16.1642 10 16.5 9.66421 16.5 9.25V0.75C16.5 0.335786 16.1642 0 15.75 0H14.25ZM9.75 2C9.33579 2 9 2.33579 9 2.75V9.25C9 9.66421 9.33579 10 9.75 10H11.25C11.6642 10 12 9.66421 12 9.25V2.75C12 2.33579 11.6642 2 11.25 2H9.75ZM4.5 4.75C4.5 4.33579 4.83579 4 5.25 4H6.75C7.16421 4 7.5 4.33579 7.5 4.75V9.25C7.5 9.66421 7.16421 10 6.75 10H5.25C4.83579 10 4.5 9.66421 4.5 9.25V4.75ZM0.75 5.5C0.335786 5.5 0 5.83579 0 6.25V9.25C0 9.66421 0.335786 10 0.75 10H2.25C2.66421 10 3 9.66421 3 9.25V6.25C3 5.83579 2.66421 5.5 2.25 5.5H0.75Z" fill="black"/> <path d="M14.5 0.75C14.5 0.888072 14.3881 1 14.25 1V-1C13.2835 -1 12.5 -0.216499 12.5 0.75H14.5ZM14.5 9.25V0.75H12.5V9.25H14.5ZM14.25 9C14.3881 9 14.5 9.11193 14.5 9.25H12.5C12.5 10.2165 13.2835 11 14.25 11V9ZM15.75 9H14.25V11H15.75V9ZM15.5 9.25C15.5 9.11193 15.6119 9 15.75 9V11C16.7165 11 17.5 10.2165 17.5 9.25H15.5ZM15.5 0.75V9.25H17.5V0.75H15.5ZM15.75 1C15.6119 1 15.5 0.888072 15.5 0.75H17.5C17.5 -0.216499 16.7165 -1 15.75 -1V1ZM14.25 1H15.75V-1H14.25V1ZM10 2.75C10 2.88807 9.88807 3 9.75 3V1C8.7835 1 8 1.7835 8 2.75H10ZM10 9.25V2.75H8V9.25H10ZM9.75 9C9.88807 9 10 9.11193 10 9.25H8C8 10.2165 8.7835 11 9.75 11V9ZM11.25 9H9.75V11H11.25V9ZM11 9.25C11 9.11193 11.1119 9 11.25 9V11C12.2165 11 13 10.2165 13 9.25H11ZM11 2.75V9.25H13V2.75H11ZM11.25 3C11.1119 3 11 2.88807 11 2.75H13C13 1.7835 12.2165 1 11.25 1V3ZM9.75 3H11.25V1H9.75V3ZM5.25 3C4.2835 3 3.5 3.7835 3.5 4.75H5.5C5.5 4.88807 5.38807 5 5.25 5V3ZM6.75 3H5.25V5H6.75V3ZM8.5 4.75C8.5 3.7835 7.7165 3 6.75 3V5C6.61193 5 6.5 4.88807 6.5 4.75H8.5ZM8.5 9.25V4.75H6.5V9.25H8.5ZM6.75 11C7.7165 11 8.5 10.2165 8.5 9.25H6.5C6.5 9.11193 6.61193 9 6.75 9V11ZM5.25 11H6.75V9H5.25V11ZM3.5 9.25C3.5 10.2165 4.2835 11 5.25 11V9C5.38807 9 5.5 9.11193 5.5 9.25H3.5ZM3.5 4.75V9.25H5.5V4.75H3.5ZM1 6.25C1 6.38807 0.888071 6.5 0.75 6.5V4.5C-0.216498 4.5 -1 5.2835 -1 6.25H1ZM1 9.25V6.25H-1V9.25H1ZM0.75 9C0.888072 9 1 9.11193 1 9.25H-1C-1 10.2165 -0.216499 11 0.75 11V9ZM2.25 9H0.75V11H2.25V9ZM2 9.25C2 9.11193 2.11193 9 2.25 9V11C3.2165 11 4 10.2165 4 9.25H2ZM2 6.25V9.25H4V6.25H2ZM2.25 6.5C2.11193 6.5 2 6.38807 2 6.25H4C4 5.2835 3.2165 4.5 2.25 4.5V6.5ZM0.75 6.5H2.25V4.5H0.75V6.5Z" fill="black" mask="url(#path-1-inside-1)"/> </symbol>
<symbol id="user" viewBox="0 0 16 16"> <path fill-rule="evenodd" clip-rule="evenodd" d="M8 8C10.21 8 12 6.21 12 4C12 1.79 10.21 0 8 0C5.79 0 4 1.79 4 4C4 6.21 5.79 8 8 8ZM8 10C5.33 10 0 11.34 0 14V16H16V14C16 11.34 10.67 10 8 10Z" fill="black"/> </symbol>
<symbol id="wifi" viewBox="0 0 15 10"> <path fill-rule="evenodd" clip-rule="evenodd" d="M5.87687 7.87676L7.50011 9.5L9.12336 7.87676C8.66143 7.5602 8.1024 7.375 7.50011 7.375C6.89783 7.375 6.3388 7.5602 5.87687 7.87676ZM4.26553 6.26541C5.14695 5.54923 6.2709 5.12 7.49512 5.12C8.72188 5.12 9.84797 5.55103 10.7302 6.2699L11.6124 5.38772C10.5016 4.44717 9.0646 3.88 7.49512 3.88C5.92818 3.88 4.49328 4.44533 3.38326 5.38314L4.26553 6.26541ZM1.87634 3.87623C3.37493 2.55298 5.34375 1.75 7.50011 1.75C9.65648 1.75 11.6253 2.55298 13.1239 3.87623L14.0093 2.99085C12.2832 1.4421 10.0017 0.5 7.50011 0.5C4.99855 0.5 2.71702 1.4421 0.990967 2.99085L1.87634 3.87623Z" fill="black"/> <path d="M7.50011 9.5L7.14656 9.85355C7.24033 9.94732 7.36751 10 7.50011 10C7.63272 10 7.7599 9.94732 7.85367 9.85355L7.50011 9.5ZM5.87687 7.87676L5.59423 7.46431C5.47158 7.54836 5.39271 7.68263 5.379 7.83067C5.3653 7.97872 5.41819 8.12518 5.52332 8.23031L5.87687 7.87676ZM9.12336 7.87676L9.47691 8.23031C9.58204 8.12518 9.63493 7.97872 9.62123 7.83067C9.60752 7.68263 9.52865 7.54836 9.406 7.46431L9.12336 7.87676ZM4.26553 6.26541L3.91198 6.61897C4.09316 6.80015 4.38198 6.81504 4.58083 6.65347L4.26553 6.26541ZM10.7302 6.2699L10.4144 6.65752C10.6132 6.81954 10.9024 6.80482 11.0838 6.62345L10.7302 6.2699ZM11.6124 5.38772L11.9659 5.74128C12.0648 5.64243 12.1177 5.50671 12.112 5.36703C12.1062 5.22736 12.0422 5.09648 11.9355 5.00614L11.6124 5.38772ZM3.38326 5.38314L3.06057 5.00121C2.95371 5.09149 2.88956 5.22241 2.8837 5.36217C2.87783 5.50194 2.93078 5.63778 3.0297 5.7367L3.38326 5.38314ZM1.87634 3.87623L1.52279 4.22978C1.70954 4.41653 2.00932 4.42584 2.20729 4.25103L1.87634 3.87623ZM13.1239 3.87623L12.7929 4.25103C12.9909 4.42584 13.2907 4.41653 13.4774 4.22978L13.1239 3.87623ZM14.0093 2.99085L14.3628 3.34441C14.4599 3.24732 14.5128 3.11458 14.5091 2.97733C14.5054 2.84008 14.4454 2.7104 14.3432 2.6187L14.0093 2.99085ZM0.990967 2.99085L0.657044 2.6187C0.554851 2.7104 0.494862 2.84008 0.49115 2.97733C0.487437 3.11458 0.540328 3.24732 0.637413 3.34441L0.990967 2.99085ZM7.85367 9.14645L6.23043 7.5232L5.52332 8.23031L7.14656 9.85355L7.85367 9.14645ZM8.7698 7.5232L7.14656 9.14645L7.85367 9.85355L9.47691 8.23031L8.7698 7.5232ZM7.50011 7.875C7.99834 7.875 8.45935 8.02786 8.84071 8.2892L9.406 7.46431C8.8635 7.09254 8.20646 6.875 7.50011 6.875V7.875ZM6.15952 8.2892C6.54088 8.02786 7.00189 7.875 7.50011 7.875V6.875C6.79377 6.875 6.13673 7.09254 5.59423 7.46431L6.15952 8.2892ZM7.49512 4.62C6.15194 4.62 4.91751 5.09141 3.95023 5.87736L4.58083 6.65347C5.37638 6.00706 6.38987 5.62 7.49512 5.62V4.62ZM11.0461 5.88229C10.0779 5.09338 8.8411 4.62 7.49512 4.62V5.62C8.60266 5.62 9.61808 6.00867 10.4144 6.65752L11.0461 5.88229ZM11.2588 5.03417L10.3767 5.91635L11.0838 6.62345L11.9659 5.74128L11.2588 5.03417ZM7.49512 4.38C8.94191 4.38 10.2654 4.90233 11.2893 5.7693L11.9355 5.00614C10.7378 3.992 9.18729 3.38 7.49512 3.38V4.38ZM3.70594 5.76508C4.72911 4.90064 6.05067 4.38 7.49512 4.38V3.38C5.80569 3.38 4.25745 3.99001 3.06057 5.00121L3.70594 5.76508ZM4.61908 5.91186L3.73681 5.02959L3.0297 5.7367L3.91198 6.61897L4.61908 5.91186ZM7.50011 1.25C5.21724 1.25 3.13183 2.10061 1.5454 3.50143L2.20729 4.25103C3.61803 3.00534 5.47025 2.25 7.50011 2.25V1.25ZM13.4548 3.50143C11.8684 2.10061 9.78299 1.25 7.50011 1.25V2.25C9.52998 2.25 11.3822 3.00534 12.7929 4.25103L13.4548 3.50143ZM13.6557 2.6373L12.7703 3.52268L13.4774 4.22978L14.3628 3.34441L13.6557 2.6373ZM14.3432 2.6187C12.529 0.990828 10.1297 0 7.50011 0V1C9.87371 1 12.0375 1.89337 13.6753 3.363L14.3432 2.6187ZM7.50011 0C4.87058 0 2.47127 0.990828 0.657044 2.6187L1.32489 3.363C2.96276 1.89337 5.12652 1 7.50011 1V0ZM2.2299 3.52268L1.34452 2.6373L0.637413 3.34441L1.52279 4.22978L2.2299 3.52268Z" fill="black"/> </symbol>
</svg>