<svg width="32" height="32" fill="none" xmlns="http://www.w3.org/2000/svg"><path fill-rule="evenodd" clip-rule="evenodd" d="M9.636 22.392a8.996 8.996 0 0 1-1.633-2.23v3.835h3.81a9 9 0 0 1-2.177-1.605zm9.062 2.224a9.04 9.04 0 0 1-5.396 0L16 27.314l2.698-2.698zm3.666-2.224a9 9 0 0 1-2.177 1.605h3.81v-3.836a8.997 8.997 0 0 1-1.633 2.23zm2.198-9.144a9.039 9.039 0 0 1 .026 5.478L27.314 16l-2.752-2.752zm-2.198-3.584a8.996 8.996 0 0 1 1.633 2.23V8.004H20.08a8.994 8.994 0 0 1 2.285 1.661zM7.412 18.726L4.686 16l2.752-2.752a9.04 9.04 0 0 0-.026 5.478zm.59-10.723v3.892a8.995 8.995 0 0 1 1.634-2.231 8.993 8.993 0 0 1 2.285-1.661H8.003zm10.778-.537a9.04 9.04 0 0 0-5.56 0L16 4.686l2.78 2.78zm2.877 2.905a8 8 0 1 1-11.314 11.314A8 8 0 0 1 21.657 10.37zm-.035 7.715a5.973 5.973 0 0 1-1.38 2.157 6.005 6.005 0 0 1-8.485 0 6.005 6.005 0 0 1 0-8.486 5.973 5.973 0 0 1 2.157-1.378 6.005 6.005 0 0 0 1.379 6.328 6.005 6.005 0 0 0 6.329 1.379z" /></svg>
