<svg width="27" height="12" viewBox="0 0 27 12" fill="none" xmlns="http://www.w3.org/2000/svg">
<path opacity="0.47" d="M0.5 3C0.5 1.89543 1.39543 1 2.5 1H21.5C22.6046 1 23.5 1.89543 23.5 3V9.5C23.5 10.6046 22.6046 11.5 21.5 11.5H20.1476H2.5C1.39543 11.5 0.5 10.6046 0.5 9.5V3Z" stroke="black"/>
<path opacity="0.58" fill-rule="evenodd" clip-rule="evenodd" d="M25 8.37187C25.8739 8.06299 26.5 7.22956 26.5 6.2499C26.5 5.27024 25.8739 4.43681 25 4.12793V8.37187Z" fill="black"/>
<path fill-rule="evenodd" clip-rule="evenodd" d="M2 3.5C2 2.94772 2.44772 2.5 3 2.5H21C21.5523 2.5 22 2.94772 22 3.5V9C22 9.55228 21.5523 10 21 10H3C2.44772 10 2 9.55228 2 9V3.5Z" fill="black"/>
</svg>
