<svg width="17" height="10" viewBox="0 0 17 10" fill="none" xmlns="http://www.w3.org/2000/svg">
<mask id="path-1-inside-1" fill="white">
<path fill-rule="evenodd" clip-rule="evenodd" d="M14.25 0C13.8358 0 13.5 0.335786 13.5 0.75V9.25C13.5 9.66421 13.8358 10 14.25 10H15.75C16.1642 10 16.5 9.66421 16.5 9.25V0.75C16.5 0.335786 16.1642 0 15.75 0H14.25ZM9.75 2C9.33579 2 9 2.33579 9 2.75V9.25C9 9.66421 9.33579 10 9.75 10H11.25C11.6642 10 12 9.66421 12 9.25V2.75C12 2.33579 11.6642 2 11.25 2H9.75ZM4.5 4.75C4.5 4.33579 4.83579 4 5.25 4H6.75C7.16421 4 7.5 4.33579 7.5 4.75V9.25C7.5 9.66421 7.16421 10 6.75 10H5.25C4.83579 10 4.5 9.66421 4.5 9.25V4.75ZM0.75 5.5C0.335786 5.5 0 5.83579 0 6.25V9.25C0 9.66421 0.335786 10 0.75 10H2.25C2.66421 10 3 9.66421 3 9.25V6.25C3 5.83579 2.66421 5.5 2.25 5.5H0.75Z"/>
</mask>
<path fill-rule="evenodd" clip-rule="evenodd" d="M14.25 0C13.8358 0 13.5 0.335786 13.5 0.75V9.25C13.5 9.66421 13.8358 10 14.25 10H15.75C16.1642 10 16.5 9.66421 16.5 9.25V0.75C16.5 0.335786 16.1642 0 15.75 0H14.25ZM9.75 2C9.33579 2 9 2.33579 9 2.75V9.25C9 9.66421 9.33579 10 9.75 10H11.25C11.6642 10 12 9.66421 12 9.25V2.75C12 2.33579 11.6642 2 11.25 2H9.75ZM4.5 4.75C4.5 4.33579 4.83579 4 5.25 4H6.75C7.16421 4 7.5 4.33579 7.5 4.75V9.25C7.5 9.66421 7.16421 10 6.75 10H5.25C4.83579 10 4.5 9.66421 4.5 9.25V4.75ZM0.75 5.5C0.335786 5.5 0 5.83579 0 6.25V9.25C0 9.66421 0.335786 10 0.75 10H2.25C2.66421 10 3 9.66421 3 9.25V6.25C3 5.83579 2.66421 5.5 2.25 5.5H0.75Z" fill="black"/>
<path d="M14.5 0.75C14.5 0.888072 14.3881 1 14.25 1V-1C13.2835 -1 12.5 -0.216499 12.5 0.75H14.5ZM14.5 9.25V0.75H12.5V9.25H14.5ZM14.25 9C14.3881 9 14.5 9.11193 14.5 9.25H12.5C12.5 10.2165 13.2835 11 14.25 11V9ZM15.75 9H14.25V11H15.75V9ZM15.5 9.25C15.5 9.11193 15.6119 9 15.75 9V11C16.7165 11 17.5 10.2165 17.5 9.25H15.5ZM15.5 0.75V9.25H17.5V0.75H15.5ZM15.75 1C15.6119 1 15.5 0.888072 15.5 0.75H17.5C17.5 -0.216499 16.7165 -1 15.75 -1V1ZM14.25 1H15.75V-1H14.25V1ZM10 2.75C10 2.88807 9.88807 3 9.75 3V1C8.7835 1 8 1.7835 8 2.75H10ZM10 9.25V2.75H8V9.25H10ZM9.75 9C9.88807 9 10 9.11193 10 9.25H8C8 10.2165 8.7835 11 9.75 11V9ZM11.25 9H9.75V11H11.25V9ZM11 9.25C11 9.11193 11.1119 9 11.25 9V11C12.2165 11 13 10.2165 13 9.25H11ZM11 2.75V9.25H13V2.75H11ZM11.25 3C11.1119 3 11 2.88807 11 2.75H13C13 1.7835 12.2165 1 11.25 1V3ZM9.75 3H11.25V1H9.75V3ZM5.25 3C4.2835 3 3.5 3.7835 3.5 4.75H5.5C5.5 4.88807 5.38807 5 5.25 5V3ZM6.75 3H5.25V5H6.75V3ZM8.5 4.75C8.5 3.7835 7.7165 3 6.75 3V5C6.61193 5 6.5 4.88807 6.5 4.75H8.5ZM8.5 9.25V4.75H6.5V9.25H8.5ZM6.75 11C7.7165 11 8.5 10.2165 8.5 9.25H6.5C6.5 9.11193 6.61193 9 6.75 9V11ZM5.25 11H6.75V9H5.25V11ZM3.5 9.25C3.5 10.2165 4.2835 11 5.25 11V9C5.38807 9 5.5 9.11193 5.5 9.25H3.5ZM3.5 4.75V9.25H5.5V4.75H3.5ZM1 6.25C1 6.38807 0.888071 6.5 0.75 6.5V4.5C-0.216498 4.5 -1 5.2835 -1 6.25H1ZM1 9.25V6.25H-1V9.25H1ZM0.75 9C0.888072 9 1 9.11193 1 9.25H-1C-1 10.2165 -0.216499 11 0.75 11V9ZM2.25 9H0.75V11H2.25V9ZM2 9.25C2 9.11193 2.11193 9 2.25 9V11C3.2165 11 4 10.2165 4 9.25H2ZM2 6.25V9.25H4V6.25H2ZM2.25 6.5C2.11193 6.5 2 6.38807 2 6.25H4C4 5.2835 3.2165 4.5 2.25 4.5V6.5ZM0.75 6.5H2.25V4.5H0.75V6.5Z" fill="black" mask="url(#path-1-inside-1)"/>
</svg>
