<svg width="15" height="10" viewBox="0 0 15 10" fill="none" xmlns="http://www.w3.org/2000/svg">
<path fill-rule="evenodd" clip-rule="evenodd" d="M5.87687 7.87676L7.50011 9.5L9.12336 7.87676C8.66143 7.5602 8.1024 7.375 7.50011 7.375C6.89783 7.375 6.3388 7.5602 5.87687 7.87676ZM4.26553 6.26541C5.14695 5.54923 6.2709 5.12 7.49512 5.12C8.72188 5.12 9.84797 5.55103 10.7302 6.2699L11.6124 5.38772C10.5016 4.44717 9.0646 3.88 7.49512 3.88C5.92818 3.88 4.49328 4.44533 3.38326 5.38314L4.26553 6.26541ZM1.87634 3.87623C3.37493 2.55298 5.34375 1.75 7.50011 1.75C9.65648 1.75 11.6253 2.55298 13.1239 3.87623L14.0093 2.99085C12.2832 1.4421 10.0017 0.5 7.50011 0.5C4.99855 0.5 2.71702 1.4421 0.990967 2.99085L1.87634 3.87623Z" fill="black"/>
<path d="M7.50011 9.5L7.14656 9.85355C7.24033 9.94732 7.36751 10 7.50011 10C7.63272 10 7.7599 9.94732 7.85367 9.85355L7.50011 9.5ZM5.87687 7.87676L5.59423 7.46431C5.47158 7.54836 5.39271 7.68263 5.379 7.83067C5.3653 7.97872 5.41819 8.12518 5.52332 8.23031L5.87687 7.87676ZM9.12336 7.87676L9.47691 8.23031C9.58204 8.12518 9.63493 7.97872 9.62123 7.83067C9.60752 7.68263 9.52865 7.54836 9.406 7.46431L9.12336 7.87676ZM4.26553 6.26541L3.91198 6.61897C4.09316 6.80015 4.38198 6.81504 4.58083 6.65347L4.26553 6.26541ZM10.7302 6.2699L10.4144 6.65752C10.6132 6.81954 10.9024 6.80482 11.0838 6.62345L10.7302 6.2699ZM11.6124 5.38772L11.9659 5.74128C12.0648 5.64243 12.1177 5.50671 12.112 5.36703C12.1062 5.22736 12.0422 5.09648 11.9355 5.00614L11.6124 5.38772ZM3.38326 5.38314L3.06057 5.00121C2.95371 5.09149 2.88956 5.22241 2.8837 5.36217C2.87783 5.50194 2.93078 5.63778 3.0297 5.7367L3.38326 5.38314ZM1.87634 3.87623L1.52279 4.22978C1.70954 4.41653 2.00932 4.42584 2.20729 4.25103L1.87634 3.87623ZM13.1239 3.87623L12.7929 4.25103C12.9909 4.42584 13.2907 4.41653 13.4774 4.22978L13.1239 3.87623ZM14.0093 2.99085L14.3628 3.34441C14.4599 3.24732 14.5128 3.11458 14.5091 2.97733C14.5054 2.84008 14.4454 2.7104 14.3432 2.6187L14.0093 2.99085ZM0.990967 2.99085L0.657044 2.6187C0.554851 2.7104 0.494862 2.84008 0.49115 2.97733C0.487437 3.11458 0.540328 3.24732 0.637413 3.34441L0.990967 2.99085ZM7.85367 9.14645L6.23043 7.5232L5.52332 8.23031L7.14656 9.85355L7.85367 9.14645ZM8.7698 7.5232L7.14656 9.14645L7.85367 9.85355L9.47691 8.23031L8.7698 7.5232ZM7.50011 7.875C7.99834 7.875 8.45935 8.02786 8.84071 8.2892L9.406 7.46431C8.8635 7.09254 8.20646 6.875 7.50011 6.875V7.875ZM6.15952 8.2892C6.54088 8.02786 7.00189 7.875 7.50011 7.875V6.875C6.79377 6.875 6.13673 7.09254 5.59423 7.46431L6.15952 8.2892ZM7.49512 4.62C6.15194 4.62 4.91751 5.09141 3.95023 5.87736L4.58083 6.65347C5.37638 6.00706 6.38987 5.62 7.49512 5.62V4.62ZM11.0461 5.88229C10.0779 5.09338 8.8411 4.62 7.49512 4.62V5.62C8.60266 5.62 9.61808 6.00867 10.4144 6.65752L11.0461 5.88229ZM11.2588 5.03417L10.3767 5.91635L11.0838 6.62345L11.9659 5.74128L11.2588 5.03417ZM7.49512 4.38C8.94191 4.38 10.2654 4.90233 11.2893 5.7693L11.9355 5.00614C10.7378 3.992 9.18729 3.38 7.49512 3.38V4.38ZM3.70594 5.76508C4.72911 4.90064 6.05067 4.38 7.49512 4.38V3.38C5.80569 3.38 4.25745 3.99001 3.06057 5.00121L3.70594 5.76508ZM4.61908 5.91186L3.73681 5.02959L3.0297 5.7367L3.91198 6.61897L4.61908 5.91186ZM7.50011 1.25C5.21724 1.25 3.13183 2.10061 1.5454 3.50143L2.20729 4.25103C3.61803 3.00534 5.47025 2.25 7.50011 2.25V1.25ZM13.4548 3.50143C11.8684 2.10061 9.78299 1.25 7.50011 1.25V2.25C9.52998 2.25 11.3822 3.00534 12.7929 4.25103L13.4548 3.50143ZM13.6557 2.6373L12.7703 3.52268L13.4774 4.22978L14.3628 3.34441L13.6557 2.6373ZM14.3432 2.6187C12.529 0.990828 10.1297 0 7.50011 0V1C9.87371 1 12.0375 1.89337 13.6753 3.363L14.3432 2.6187ZM7.50011 0C4.87058 0 2.47127 0.990828 0.657044 2.6187L1.32489 3.363C2.96276 1.89337 5.12652 1 7.50011 1V0ZM2.2299 3.52268L1.34452 2.6373L0.637413 3.34441L1.52279 4.22978L2.2299 3.52268Z" fill="black"/>
</svg>
