<svg width="32" height="32" viewBox="0 0 32 32" fill="none" xmlns="http://www.w3.org/2000/svg">
<path fill-rule="evenodd" clip-rule="evenodd" d="M9.63604 22.3919C8.96249 21.7183 8.41802 20.9646 8.00262 20.1614L8.00262 23.9974L11.813 23.9974C11.0298 23.5856 10.2946 23.0504 9.63604 22.3919ZM18.6977 24.616C16.9442 25.1652 15.0558 25.1652 13.3023 24.616L16 27.3137L18.6977 24.616ZM22.364 22.3919C21.7054 23.0504 20.9702 23.5856 20.187 23.9974L23.9974 23.9974L23.9974 20.1614C23.582 20.9646 23.0375 21.7183 22.364 22.3919ZM24.562 13.2483C25.1372 15.0248 25.1459 16.9448 24.5881 18.7256L27.3137 16L24.562 13.2483ZM22.364 9.66397C23.0375 10.3375 23.582 11.0913 23.9974 11.8945L23.9974 8.00263L20.079 8.00263C20.9026 8.42144 21.6752 8.97522 22.364 9.66397ZM7.41188 18.7256L4.68629 16L7.43798 13.2483C6.86284 15.0248 6.85414 16.9448 7.41188 18.7256ZM8.00262 8.00263L8.00262 11.8945C8.41802 11.0913 8.96249 10.3375 9.63604 9.66397C10.3248 8.97522 11.0974 8.42144 11.921 8.00263L8.00262 8.00263ZM18.7796 7.46591C16.9758 6.88193 15.0242 6.88193 13.2204 7.46591L16 4.6863L18.7796 7.46591ZM21.6569 10.3711C24.781 13.4953 24.781 18.5606 21.6569 21.6848C18.5327 24.809 13.4673 24.809 10.3431 21.6848C7.21895 18.5606 7.21895 13.4953 10.3431 10.3711C13.4673 7.24688 18.5327 7.24688 21.6569 10.3711ZM21.6215 18.086C21.3316 18.8709 20.872 19.6133 20.2426 20.2426C17.9021 22.5832 14.0979 22.5832 11.7574 20.2426C9.41684 17.9021 9.41684 14.0979 11.7574 11.7574C12.3867 11.128 13.1291 10.6684 13.914 10.3785C13.1291 12.5069 13.5817 14.9959 15.2929 16.7071C17.0041 18.4183 19.4931 18.8709 21.6215 18.086Z" fill="black"/>
</svg>
