<svg width="24" height="24" viewBox="0 0 24 24" fill="none" xmlns="http://www.w3.org/2000/svg">
<path fill-rule="evenodd" clip-rule="evenodd" d="M16 17C16 17.5523 15.5523 18 15 18H9C8.44772 18 8 17.5523 8 17V14.5189C6.02627 13.054 5 11.1948 5 9C5 5.09723 7.7531 2 12 2C16.2469 2 19 5.09723 19 9C19 11.1948 17.9737 13.054 16 14.5189V17ZM14 14C14 13.6656 14.1671 13.3534 14.4453 13.1679C16.1809 12.0109 17 10.6457 17 9C17 6.15277 15.0864 4 12 4C8.91357 4 7 6.15277 7 9C7 10.6457 7.81915 12.0109 9.5547 13.1679C9.8329 13.3534 10 13.6656 10 14V16H14V14ZM15 21V20H9V21C9 21.5523 9.44772 22 10 22H14C14.5523 22 15 21.5523 15 21Z" fill="black"/>
</svg>
